<mxfile host="app.diagrams.net" agent="Mozilla/5.0 (iPad; CPU OS 17_6_1 like Mac OS X) AppleWebKit/605.1.15 (KHTML, like Gecko) Version/17.6 Mobile/15E148 Safari/604.1" version="24.8.8" pages="2">
  <diagram name="Basic Requirements" id="nwPa76y-X5XMzPL2K8uC">
    <mxGraphModel dx="1099" dy="514" grid="0" gridSize="10" guides="1" tooltips="1" connect="1" arrows="1" fold="1" page="1" pageScale="1" pageWidth="827" pageHeight="1169" math="0" shadow="0">
      <root>
        <mxCell id="0" />
        <mxCell id="1" parent="0" />
        <mxCell id="JTeIH7An6FHHoIXwUtM0-51" value="Prepare data for modeling&lt;div style=&quot;font-size: 16px;&quot;&gt;&lt;br style=&quot;font-size: 16px;&quot;&gt;&lt;/div&gt;&lt;div style=&quot;font-size: 16px;&quot;&gt;&lt;br style=&quot;font-size: 16px;&quot;&gt;&lt;/div&gt;&lt;div style=&quot;font-size: 16px;&quot;&gt;&lt;br style=&quot;font-size: 16px;&quot;&gt;&lt;/div&gt;&lt;div style=&quot;font-size: 16px;&quot;&gt;&lt;br style=&quot;font-size: 16px;&quot;&gt;&lt;/div&gt;&lt;div style=&quot;font-size: 16px;&quot;&gt;&lt;br style=&quot;font-size: 16px;&quot;&gt;&lt;/div&gt;&lt;div style=&quot;font-size: 16px;&quot;&gt;&lt;br style=&quot;font-size: 16px;&quot;&gt;&lt;/div&gt;&lt;div style=&quot;font-size: 16px;&quot;&gt;&lt;br style=&quot;font-size: 16px;&quot;&gt;&lt;/div&gt;&lt;div style=&quot;font-size: 16px;&quot;&gt;&lt;br style=&quot;font-size: 16px;&quot;&gt;&lt;/div&gt;&lt;div style=&quot;font-size: 16px;&quot;&gt;&lt;br style=&quot;font-size: 16px;&quot;&gt;&lt;/div&gt;&lt;div style=&quot;font-size: 16px;&quot;&gt;&lt;br style=&quot;font-size: 16px;&quot;&gt;&lt;/div&gt;&lt;div style=&quot;font-size: 16px;&quot;&gt;&lt;br&gt;&lt;/div&gt;" style="rounded=0;whiteSpace=wrap;html=1;fillColor=#d5e8d4;strokeColor=#82b366;fontSize=16;fontStyle=1" parent="1" vertex="1">
          <mxGeometry x="124" y="824" width="598" height="264" as="geometry" />
        </mxCell>
        <mxCell id="JTeIH7An6FHHoIXwUtM0-50" value="Collect data&lt;div&gt;&lt;br&gt;&lt;/div&gt;&lt;div&gt;&lt;br&gt;&lt;/div&gt;&lt;div&gt;&lt;br&gt;&lt;/div&gt;&lt;div&gt;&lt;br&gt;&lt;/div&gt;&lt;div&gt;&lt;br&gt;&lt;/div&gt;&lt;div&gt;&lt;br&gt;&lt;/div&gt;&lt;div&gt;&lt;br&gt;&lt;/div&gt;&lt;div&gt;&lt;br&gt;&lt;/div&gt;&lt;div&gt;&lt;br&gt;&lt;/div&gt;&lt;div&gt;&lt;br&gt;&lt;/div&gt;&lt;div&gt;&lt;br&gt;&lt;/div&gt;&lt;div&gt;&lt;br&gt;&lt;/div&gt;&lt;div&gt;&lt;br&gt;&lt;/div&gt;&lt;div&gt;&lt;br&gt;&lt;/div&gt;&lt;div&gt;&lt;br&gt;&lt;/div&gt;&lt;div&gt;&lt;br&gt;&lt;/div&gt;&lt;div&gt;&lt;br&gt;&lt;/div&gt;&lt;div&gt;&lt;br&gt;&lt;/div&gt;&lt;div&gt;&lt;br&gt;&lt;/div&gt;&lt;div&gt;&lt;br&gt;&lt;/div&gt;&lt;div&gt;&lt;br&gt;&lt;/div&gt;&lt;div&gt;&lt;br&gt;&lt;/div&gt;" style="rounded=0;whiteSpace=wrap;html=1;fillColor=#fff2cc;strokeColor=#d6b656;fontSize=15;fontStyle=1" parent="1" vertex="1">
          <mxGeometry x="40" y="296" width="747" height="453" as="geometry" />
        </mxCell>
        <mxCell id="JTeIH7An6FHHoIXwUtM0-47" value="Preparation for collecting data&amp;nbsp;&lt;div style=&quot;font-size: 15px;&quot;&gt;&lt;br style=&quot;font-size: 15px;&quot;&gt;&lt;/div&gt;&lt;div style=&quot;font-size: 15px;&quot;&gt;&lt;br style=&quot;font-size: 15px;&quot;&gt;&lt;/div&gt;&lt;div style=&quot;font-size: 15px;&quot;&gt;&lt;br style=&quot;font-size: 15px;&quot;&gt;&lt;/div&gt;&lt;div style=&quot;font-size: 15px;&quot;&gt;&lt;br style=&quot;font-size: 15px;&quot;&gt;&lt;/div&gt;&lt;div style=&quot;font-size: 15px;&quot;&gt;&lt;br style=&quot;font-size: 15px;&quot;&gt;&lt;/div&gt;" style="rounded=0;whiteSpace=wrap;html=1;fontStyle=1;fontSize=15;fillColor=#f8cecc;strokeColor=#b85450;" parent="1" vertex="1">
          <mxGeometry x="41" y="141" width="359" height="145" as="geometry" />
        </mxCell>
        <mxCell id="JTeIH7An6FHHoIXwUtM0-46" value="" style="edgeStyle=orthogonalEdgeStyle;rounded=0;orthogonalLoop=1;jettySize=auto;html=1;" parent="1" source="JTeIH7An6FHHoIXwUtM0-1" target="JTeIH7An6FHHoIXwUtM0-4" edge="1">
          <mxGeometry relative="1" as="geometry" />
        </mxCell>
        <mxCell id="JTeIH7An6FHHoIXwUtM0-49" value="" style="edgeStyle=orthogonalEdgeStyle;rounded=0;orthogonalLoop=1;jettySize=auto;html=1;entryX=0.5;entryY=0;entryDx=0;entryDy=0;" parent="1" source="JTeIH7An6FHHoIXwUtM0-1" target="JTeIH7An6FHHoIXwUtM0-23" edge="1">
          <mxGeometry relative="1" as="geometry">
            <mxPoint x="258" y="351" as="targetPoint" />
          </mxGeometry>
        </mxCell>
        <mxCell id="JTeIH7An6FHHoIXwUtM0-1" value="Check dataset quality" style="rounded=0;whiteSpace=wrap;html=1;fillColor=#dae8fc;strokeColor=#6c8ebf;" parent="1" vertex="1">
          <mxGeometry x="58" y="321" width="120" height="60" as="geometry" />
        </mxCell>
        <mxCell id="JTeIH7An6FHHoIXwUtM0-2" value="Inform about common mistakes" style="rounded=0;whiteSpace=wrap;html=1;fillColor=#dae8fc;strokeColor=#6c8ebf;" parent="1" vertex="1">
          <mxGeometry x="79" y="195" width="120" height="60" as="geometry" />
        </mxCell>
        <mxCell id="JTeIH7An6FHHoIXwUtM0-3" value="Create checklist for collecting data" style="rounded=0;whiteSpace=wrap;html=1;fillColor=#dae8fc;strokeColor=#6c8ebf;" parent="1" vertex="1">
          <mxGeometry x="244" y="195" width="120" height="60" as="geometry" />
        </mxCell>
        <mxCell id="JTeIH7An6FHHoIXwUtM0-44" value="" style="edgeStyle=orthogonalEdgeStyle;rounded=0;orthogonalLoop=1;jettySize=auto;html=1;entryX=0.5;entryY=0;entryDx=0;entryDy=0;" parent="1" source="JTeIH7An6FHHoIXwUtM0-4" target="JTeIH7An6FHHoIXwUtM0-16" edge="1">
          <mxGeometry relative="1" as="geometry">
            <mxPoint x="258" y="463" as="targetPoint" />
          </mxGeometry>
        </mxCell>
        <mxCell id="JTeIH7An6FHHoIXwUtM0-4" value="Provide examples for good and bad images" style="rounded=0;whiteSpace=wrap;html=1;fillColor=#dae8fc;strokeColor=#6c8ebf;" parent="1" vertex="1">
          <mxGeometry x="58" y="433" width="120" height="60" as="geometry" />
        </mxCell>
        <mxCell id="JTeIH7An6FHHoIXwUtM0-42" value="" style="edgeStyle=orthogonalEdgeStyle;rounded=0;orthogonalLoop=1;jettySize=auto;html=1;entryX=0.5;entryY=1;entryDx=0;entryDy=0;" parent="1" source="JTeIH7An6FHHoIXwUtM0-5" target="JTeIH7An6FHHoIXwUtM0-27" edge="1">
          <mxGeometry relative="1" as="geometry">
            <mxPoint x="258" y="715" as="targetPoint" />
          </mxGeometry>
        </mxCell>
        <mxCell id="JTeIH7An6FHHoIXwUtM0-5" value="Tool for data annotation" style="rounded=0;whiteSpace=wrap;html=1;fillColor=#dae8fc;strokeColor=#6c8ebf;" parent="1" vertex="1">
          <mxGeometry x="58" y="638" width="120" height="60" as="geometry" />
        </mxCell>
        <mxCell id="JTeIH7An6FHHoIXwUtM0-33" value="" style="edgeStyle=orthogonalEdgeStyle;rounded=0;orthogonalLoop=1;jettySize=auto;html=1;" parent="1" source="JTeIH7An6FHHoIXwUtM0-6" target="JTeIH7An6FHHoIXwUtM0-7" edge="1">
          <mxGeometry relative="1" as="geometry" />
        </mxCell>
        <mxCell id="JTeIH7An6FHHoIXwUtM0-35" value="" style="edgeStyle=orthogonalEdgeStyle;rounded=0;orthogonalLoop=1;jettySize=auto;html=1;" parent="1" source="JTeIH7An6FHHoIXwUtM0-6" target="JTeIH7An6FHHoIXwUtM0-34" edge="1">
          <mxGeometry relative="1" as="geometry" />
        </mxCell>
        <mxCell id="JTeIH7An6FHHoIXwUtM0-6" value="Store data in a structured way" style="rounded=0;whiteSpace=wrap;html=1;fillColor=#dae8fc;strokeColor=#6c8ebf;" parent="1" vertex="1">
          <mxGeometry x="153" y="967" width="120" height="60" as="geometry" />
        </mxCell>
        <mxCell id="JTeIH7An6FHHoIXwUtM0-32" value="" style="edgeStyle=orthogonalEdgeStyle;rounded=0;orthogonalLoop=1;jettySize=auto;html=1;" parent="1" source="JTeIH7An6FHHoIXwUtM0-7" target="JTeIH7An6FHHoIXwUtM0-31" edge="1">
          <mxGeometry relative="1" as="geometry">
            <Array as="points">
              <mxPoint x="482" y="958" />
              <mxPoint x="482" y="914" />
            </Array>
          </mxGeometry>
        </mxCell>
        <mxCell id="JTeIH7An6FHHoIXwUtM0-37" value="" style="edgeStyle=orthogonalEdgeStyle;rounded=0;orthogonalLoop=1;jettySize=auto;html=1;" parent="1" source="JTeIH7An6FHHoIXwUtM0-7" target="JTeIH7An6FHHoIXwUtM0-36" edge="1">
          <mxGeometry relative="1" as="geometry" />
        </mxCell>
        <mxCell id="JTeIH7An6FHHoIXwUtM0-40" value="" style="edgeStyle=orthogonalEdgeStyle;rounded=0;orthogonalLoop=1;jettySize=auto;html=1;" parent="1" source="JTeIH7An6FHHoIXwUtM0-7" target="JTeIH7An6FHHoIXwUtM0-38" edge="1">
          <mxGeometry relative="1" as="geometry">
            <Array as="points">
              <mxPoint x="481" y="958" />
              <mxPoint x="481" y="1002" />
            </Array>
          </mxGeometry>
        </mxCell>
        <mxCell id="JTeIH7An6FHHoIXwUtM0-7" value="Versioning of different datasets" style="rounded=0;whiteSpace=wrap;html=1;" parent="1" vertex="1">
          <mxGeometry x="349" y="939" width="120" height="37" as="geometry" />
        </mxCell>
        <mxCell id="JTeIH7An6FHHoIXwUtM0-24" value="" style="edgeStyle=orthogonalEdgeStyle;rounded=0;orthogonalLoop=1;jettySize=auto;html=1;" parent="1" source="JTeIH7An6FHHoIXwUtM0-8" target="JTeIH7An6FHHoIXwUtM0-23" edge="1">
          <mxGeometry relative="1" as="geometry" />
        </mxCell>
        <mxCell id="JTeIH7An6FHHoIXwUtM0-26" style="edgeStyle=orthogonalEdgeStyle;rounded=0;orthogonalLoop=1;jettySize=auto;html=1;entryX=0;entryY=0.5;entryDx=0;entryDy=0;" parent="1" source="JTeIH7An6FHHoIXwUtM0-8" target="JTeIH7An6FHHoIXwUtM0-25" edge="1">
          <mxGeometry relative="1" as="geometry">
            <mxPoint x="553.3420308430991" y="434" as="targetPoint" />
          </mxGeometry>
        </mxCell>
        <mxCell id="JTeIH7An6FHHoIXwUtM0-30" value="" style="edgeStyle=orthogonalEdgeStyle;rounded=0;orthogonalLoop=1;jettySize=auto;html=1;" parent="1" source="JTeIH7An6FHHoIXwUtM0-8" target="JTeIH7An6FHHoIXwUtM0-29" edge="1">
          <mxGeometry relative="1" as="geometry" />
        </mxCell>
        <mxCell id="JTeIH7An6FHHoIXwUtM0-8" value="Dashboard for dataset quality" style="rounded=0;whiteSpace=wrap;html=1;fillColor=#dae8fc;strokeColor=#6c8ebf;" parent="1" vertex="1">
          <mxGeometry x="372" y="404" width="120" height="60" as="geometry" />
        </mxCell>
        <mxCell id="JTeIH7An6FHHoIXwUtM0-12" value="" style="edgeStyle=orthogonalEdgeStyle;rounded=0;orthogonalLoop=1;jettySize=auto;html=1;" parent="1" source="JTeIH7An6FHHoIXwUtM0-9" target="JTeIH7An6FHHoIXwUtM0-11" edge="1">
          <mxGeometry relative="1" as="geometry" />
        </mxCell>
        <mxCell id="JTeIH7An6FHHoIXwUtM0-15" value="" style="edgeStyle=orthogonalEdgeStyle;rounded=0;orthogonalLoop=1;jettySize=auto;html=1;" parent="1" source="JTeIH7An6FHHoIXwUtM0-9" target="JTeIH7An6FHHoIXwUtM0-11" edge="1">
          <mxGeometry relative="1" as="geometry" />
        </mxCell>
        <mxCell id="JTeIH7An6FHHoIXwUtM0-17" value="" style="edgeStyle=orthogonalEdgeStyle;rounded=0;orthogonalLoop=1;jettySize=auto;html=1;" parent="1" source="JTeIH7An6FHHoIXwUtM0-9" target="JTeIH7An6FHHoIXwUtM0-16" edge="1">
          <mxGeometry relative="1" as="geometry" />
        </mxCell>
        <mxCell id="JTeIH7An6FHHoIXwUtM0-9" value="Feedback on dataset quality and proposals for improvement" style="rounded=0;whiteSpace=wrap;html=1;fillColor=#dae8fc;strokeColor=#6c8ebf;" parent="1" vertex="1">
          <mxGeometry x="58" y="529" width="120" height="60" as="geometry" />
        </mxCell>
        <mxCell id="JTeIH7An6FHHoIXwUtM0-10" value="Automatic data preprocessing and standardization" style="rounded=0;whiteSpace=wrap;html=1;fillColor=#dae8fc;strokeColor=#6c8ebf;" parent="1" vertex="1">
          <mxGeometry x="153" y="849" width="120" height="60" as="geometry" />
        </mxCell>
        <mxCell id="JTeIH7An6FHHoIXwUtM0-14" value="" style="edgeStyle=orthogonalEdgeStyle;rounded=0;orthogonalLoop=1;jettySize=auto;html=1;" parent="1" source="JTeIH7An6FHHoIXwUtM0-11" target="JTeIH7An6FHHoIXwUtM0-13" edge="1">
          <mxGeometry relative="1" as="geometry" />
        </mxCell>
        <mxCell id="JTeIH7An6FHHoIXwUtM0-11" value="Identify underrepresent types of images" style="whiteSpace=wrap;html=1;rounded=0;" parent="1" vertex="1">
          <mxGeometry x="254" y="580" width="120" height="44" as="geometry" />
        </mxCell>
        <mxCell id="JTeIH7An6FHHoIXwUtM0-22" value="" style="edgeStyle=orthogonalEdgeStyle;rounded=0;orthogonalLoop=1;jettySize=auto;html=1;" parent="1" source="JTeIH7An6FHHoIXwUtM0-13" target="JTeIH7An6FHHoIXwUtM0-21" edge="1">
          <mxGeometry relative="1" as="geometry" />
        </mxCell>
        <mxCell id="JTeIH7An6FHHoIXwUtM0-28" value="" style="edgeStyle=orthogonalEdgeStyle;rounded=0;orthogonalLoop=1;jettySize=auto;html=1;" parent="1" source="JTeIH7An6FHHoIXwUtM0-13" target="JTeIH7An6FHHoIXwUtM0-27" edge="1">
          <mxGeometry relative="1" as="geometry" />
        </mxCell>
        <mxCell id="JTeIH7An6FHHoIXwUtM0-13" value="Clustering?" style="whiteSpace=wrap;html=1;rounded=0;" parent="1" vertex="1">
          <mxGeometry x="454" y="619" width="120" height="43" as="geometry" />
        </mxCell>
        <mxCell id="JTeIH7An6FHHoIXwUtM0-20" value="" style="edgeStyle=orthogonalEdgeStyle;rounded=0;orthogonalLoop=1;jettySize=auto;html=1;" parent="1" source="JTeIH7An6FHHoIXwUtM0-16" target="JTeIH7An6FHHoIXwUtM0-19" edge="1">
          <mxGeometry relative="1" as="geometry" />
        </mxCell>
        <mxCell id="JTeIH7An6FHHoIXwUtM0-16" value="Identify bad images" style="whiteSpace=wrap;html=1;rounded=0;fillColor=#d5e8d4;strokeColor=#82b366;" parent="1" vertex="1">
          <mxGeometry x="254" y="520" width="120" height="44" as="geometry" />
        </mxCell>
        <mxCell id="JTeIH7An6FHHoIXwUtM0-19" value="warings" style="whiteSpace=wrap;html=1;rounded=0;" parent="1" vertex="1">
          <mxGeometry x="454" y="520" width="120" height="43" as="geometry" />
        </mxCell>
        <mxCell id="JTeIH7An6FHHoIXwUtM0-21" value="Provide examples" style="whiteSpace=wrap;html=1;rounded=0;" parent="1" vertex="1">
          <mxGeometry x="655" y="549.5" width="120" height="39.5" as="geometry" />
        </mxCell>
        <mxCell id="JTeIH7An6FHHoIXwUtM0-23" value="Amount of images" style="rounded=0;whiteSpace=wrap;html=1;fillColor=#d5e8d4;strokeColor=#82b366;" parent="1" vertex="1">
          <mxGeometry x="575" y="371" width="120" height="36" as="geometry" />
        </mxCell>
        <mxCell id="JTeIH7An6FHHoIXwUtM0-25" value="&amp;nbsp;underrepresented classes" style="rounded=0;whiteSpace=wrap;html=1;fillColor=#d5e8d4;strokeColor=#82b366;" parent="1" vertex="1">
          <mxGeometry x="575" y="416" width="120" height="36" as="geometry" />
        </mxCell>
        <mxCell id="JTeIH7An6FHHoIXwUtM0-27" value="Automatically select suitable images to enhance quality" style="whiteSpace=wrap;html=1;rounded=0;" parent="1" vertex="1">
          <mxGeometry x="655" y="609" width="120" height="39.5" as="geometry" />
        </mxCell>
        <mxCell id="JTeIH7An6FHHoIXwUtM0-29" value="Share of good images" style="rounded=0;whiteSpace=wrap;html=1;fillColor=#d5e8d4;strokeColor=#82b366;" parent="1" vertex="1">
          <mxGeometry x="575" y="462" width="120" height="36" as="geometry" />
        </mxCell>
        <mxCell id="JTeIH7An6FHHoIXwUtM0-31" value="Store different datasets" style="whiteSpace=wrap;html=1;rounded=0;" parent="1" vertex="1">
          <mxGeometry x="554" y="895" width="120" height="37" as="geometry" />
        </mxCell>
        <mxCell id="JTeIH7An6FHHoIXwUtM0-34" value="Standardized format" style="rounded=0;whiteSpace=wrap;html=1;" parent="1" vertex="1">
          <mxGeometry x="349" y="1015" width="120" height="37" as="geometry" />
        </mxCell>
        <mxCell id="JTeIH7An6FHHoIXwUtM0-36" value="Compare different datasets" style="whiteSpace=wrap;html=1;rounded=0;" parent="1" vertex="1">
          <mxGeometry x="552" y="939" width="120" height="37" as="geometry" />
        </mxCell>
        <mxCell id="JTeIH7An6FHHoIXwUtM0-38" value="Efficient modeling for different dataset" style="whiteSpace=wrap;html=1;rounded=0;" parent="1" vertex="1">
          <mxGeometry x="552" y="986" width="120" height="37" as="geometry" />
        </mxCell>
        <mxCell id="-7-ubOAbv3dwW0UAGJ7x-1" value="By class" style="whiteSpace=wrap;html=1;rounded=0;fillColor=#d5e8d4;strokeColor=#82b366;" vertex="1" parent="1">
          <mxGeometry x="454" y="566" width="120" height="43" as="geometry" />
        </mxCell>
        <mxCell id="-7-ubOAbv3dwW0UAGJ7x-2" value="" style="edgeStyle=orthogonalEdgeStyle;rounded=0;orthogonalLoop=1;jettySize=auto;html=1;entryX=0;entryY=0.5;entryDx=0;entryDy=0;" edge="1" parent="1" target="-7-ubOAbv3dwW0UAGJ7x-1">
          <mxGeometry relative="1" as="geometry">
            <mxPoint x="375" y="601" as="sourcePoint" />
            <mxPoint x="449" y="585" as="targetPoint" />
          </mxGeometry>
        </mxCell>
      </root>
    </mxGraphModel>
  </diagram>
  <diagram name="Current Status" id="c0Nuin1pJ87ZW9HFYf7t">
    <mxGraphModel dx="786" dy="511" grid="0" gridSize="10" guides="1" tooltips="1" connect="1" arrows="1" fold="1" page="1" pageScale="1" pageWidth="827" pageHeight="1169" math="0" shadow="0">
      <root>
        <mxCell id="rWumQC1VWJfSYZo2SjhE-0" />
        <mxCell id="rWumQC1VWJfSYZo2SjhE-1" parent="rWumQC1VWJfSYZo2SjhE-0" />
        <mxCell id="rWumQC1VWJfSYZo2SjhE-2" value="Prepare data for modeling&lt;div style=&quot;font-size: 16px;&quot;&gt;&lt;br style=&quot;font-size: 16px;&quot;&gt;&lt;/div&gt;&lt;div style=&quot;font-size: 16px;&quot;&gt;&lt;br style=&quot;font-size: 16px;&quot;&gt;&lt;/div&gt;&lt;div style=&quot;font-size: 16px;&quot;&gt;&lt;br style=&quot;font-size: 16px;&quot;&gt;&lt;/div&gt;&lt;div style=&quot;font-size: 16px;&quot;&gt;&lt;br style=&quot;font-size: 16px;&quot;&gt;&lt;/div&gt;&lt;div style=&quot;font-size: 16px;&quot;&gt;&lt;br style=&quot;font-size: 16px;&quot;&gt;&lt;/div&gt;&lt;div style=&quot;font-size: 16px;&quot;&gt;&lt;br style=&quot;font-size: 16px;&quot;&gt;&lt;/div&gt;&lt;div style=&quot;font-size: 16px;&quot;&gt;&lt;br style=&quot;font-size: 16px;&quot;&gt;&lt;/div&gt;&lt;div style=&quot;font-size: 16px;&quot;&gt;&lt;br style=&quot;font-size: 16px;&quot;&gt;&lt;/div&gt;&lt;div style=&quot;font-size: 16px;&quot;&gt;&lt;br style=&quot;font-size: 16px;&quot;&gt;&lt;/div&gt;&lt;div style=&quot;font-size: 16px;&quot;&gt;&lt;br style=&quot;font-size: 16px;&quot;&gt;&lt;/div&gt;&lt;div style=&quot;font-size: 16px;&quot;&gt;&lt;br&gt;&lt;/div&gt;" style="rounded=0;whiteSpace=wrap;html=1;fillColor=#d5e8d4;strokeColor=#82b366;fontSize=16;fontStyle=1" vertex="1" parent="rWumQC1VWJfSYZo2SjhE-1">
          <mxGeometry x="124" y="824" width="598" height="264" as="geometry" />
        </mxCell>
        <mxCell id="rWumQC1VWJfSYZo2SjhE-3" value="Collect data&lt;div&gt;&lt;br&gt;&lt;/div&gt;&lt;div&gt;&lt;br&gt;&lt;/div&gt;&lt;div&gt;&lt;br&gt;&lt;/div&gt;&lt;div&gt;&lt;br&gt;&lt;/div&gt;&lt;div&gt;&lt;br&gt;&lt;/div&gt;&lt;div&gt;&lt;br&gt;&lt;/div&gt;&lt;div&gt;&lt;br&gt;&lt;/div&gt;&lt;div&gt;&lt;br&gt;&lt;/div&gt;&lt;div&gt;&lt;br&gt;&lt;/div&gt;&lt;div&gt;&lt;br&gt;&lt;/div&gt;&lt;div&gt;&lt;br&gt;&lt;/div&gt;&lt;div&gt;&lt;br&gt;&lt;/div&gt;&lt;div&gt;&lt;br&gt;&lt;/div&gt;&lt;div&gt;&lt;br&gt;&lt;/div&gt;&lt;div&gt;&lt;br&gt;&lt;/div&gt;&lt;div&gt;&lt;br&gt;&lt;/div&gt;&lt;div&gt;&lt;br&gt;&lt;/div&gt;&lt;div&gt;&lt;br&gt;&lt;/div&gt;&lt;div&gt;&lt;br&gt;&lt;/div&gt;&lt;div&gt;&lt;br&gt;&lt;/div&gt;&lt;div&gt;&lt;br&gt;&lt;/div&gt;&lt;div&gt;&lt;br&gt;&lt;/div&gt;" style="rounded=0;whiteSpace=wrap;html=1;fillColor=#fff2cc;strokeColor=#d6b656;fontSize=15;fontStyle=1" vertex="1" parent="rWumQC1VWJfSYZo2SjhE-1">
          <mxGeometry x="47" y="306" width="747" height="453" as="geometry" />
        </mxCell>
        <mxCell id="rWumQC1VWJfSYZo2SjhE-4" value="Preparation for collecting data&amp;nbsp;&lt;div style=&quot;font-size: 15px;&quot;&gt;&lt;br style=&quot;font-size: 15px;&quot;&gt;&lt;/div&gt;&lt;div style=&quot;font-size: 15px;&quot;&gt;&lt;br style=&quot;font-size: 15px;&quot;&gt;&lt;/div&gt;&lt;div style=&quot;font-size: 15px;&quot;&gt;&lt;br style=&quot;font-size: 15px;&quot;&gt;&lt;/div&gt;&lt;div style=&quot;font-size: 15px;&quot;&gt;&lt;br style=&quot;font-size: 15px;&quot;&gt;&lt;/div&gt;&lt;div style=&quot;font-size: 15px;&quot;&gt;&lt;br style=&quot;font-size: 15px;&quot;&gt;&lt;/div&gt;" style="rounded=0;whiteSpace=wrap;html=1;fontStyle=1;fontSize=15;fillColor=#f8cecc;strokeColor=#b85450;" vertex="1" parent="rWumQC1VWJfSYZo2SjhE-1">
          <mxGeometry x="41" y="141" width="359" height="145" as="geometry" />
        </mxCell>
        <mxCell id="rWumQC1VWJfSYZo2SjhE-5" value="" style="edgeStyle=orthogonalEdgeStyle;rounded=0;orthogonalLoop=1;jettySize=auto;html=1;" edge="1" parent="rWumQC1VWJfSYZo2SjhE-1" source="rWumQC1VWJfSYZo2SjhE-7" target="rWumQC1VWJfSYZo2SjhE-11">
          <mxGeometry relative="1" as="geometry" />
        </mxCell>
        <mxCell id="rWumQC1VWJfSYZo2SjhE-6" value="" style="edgeStyle=orthogonalEdgeStyle;rounded=0;orthogonalLoop=1;jettySize=auto;html=1;entryX=0.5;entryY=0;entryDx=0;entryDy=0;" edge="1" parent="rWumQC1VWJfSYZo2SjhE-1" source="rWumQC1VWJfSYZo2SjhE-7" target="rWumQC1VWJfSYZo2SjhE-39">
          <mxGeometry relative="1" as="geometry">
            <mxPoint x="258" y="351" as="targetPoint" />
          </mxGeometry>
        </mxCell>
        <mxCell id="rWumQC1VWJfSYZo2SjhE-7" value="Check image quality" style="rounded=0;whiteSpace=wrap;html=1;fillColor=#dae8fc;strokeColor=#6c8ebf;" vertex="1" parent="rWumQC1VWJfSYZo2SjhE-1">
          <mxGeometry x="58" y="321" width="120" height="60" as="geometry" />
        </mxCell>
        <mxCell id="rWumQC1VWJfSYZo2SjhE-8" value="Inform about common mistakes" style="rounded=0;whiteSpace=wrap;html=1;fillColor=#dae8fc;strokeColor=#6c8ebf;" vertex="1" parent="rWumQC1VWJfSYZo2SjhE-1">
          <mxGeometry x="79" y="195" width="120" height="60" as="geometry" />
        </mxCell>
        <mxCell id="rWumQC1VWJfSYZo2SjhE-9" value="Create checklist for collecting data" style="rounded=0;whiteSpace=wrap;html=1;fillColor=#dae8fc;strokeColor=#6c8ebf;" vertex="1" parent="rWumQC1VWJfSYZo2SjhE-1">
          <mxGeometry x="244" y="195" width="120" height="60" as="geometry" />
        </mxCell>
        <mxCell id="rWumQC1VWJfSYZo2SjhE-10" value="" style="edgeStyle=orthogonalEdgeStyle;rounded=0;orthogonalLoop=1;jettySize=auto;html=1;entryX=0.5;entryY=0;entryDx=0;entryDy=0;" edge="1" parent="rWumQC1VWJfSYZo2SjhE-1" source="rWumQC1VWJfSYZo2SjhE-11" target="rWumQC1VWJfSYZo2SjhE-36">
          <mxGeometry relative="1" as="geometry">
            <mxPoint x="258" y="463" as="targetPoint" />
          </mxGeometry>
        </mxCell>
        <mxCell id="rWumQC1VWJfSYZo2SjhE-11" value="Provide examples for good and bad images" style="rounded=0;whiteSpace=wrap;html=1;fillColor=#dae8fc;strokeColor=#6c8ebf;" vertex="1" parent="rWumQC1VWJfSYZo2SjhE-1">
          <mxGeometry x="58" y="433" width="120" height="60" as="geometry" />
        </mxCell>
        <mxCell id="rWumQC1VWJfSYZo2SjhE-12" value="" style="edgeStyle=orthogonalEdgeStyle;rounded=0;orthogonalLoop=1;jettySize=auto;html=1;entryX=0.5;entryY=1;entryDx=0;entryDy=0;" edge="1" parent="rWumQC1VWJfSYZo2SjhE-1" source="rWumQC1VWJfSYZo2SjhE-13" target="rWumQC1VWJfSYZo2SjhE-41">
          <mxGeometry relative="1" as="geometry">
            <mxPoint x="258" y="715" as="targetPoint" />
          </mxGeometry>
        </mxCell>
        <mxCell id="rWumQC1VWJfSYZo2SjhE-13" value="Tool for data annotation" style="rounded=0;whiteSpace=wrap;html=1;fillColor=#dae8fc;strokeColor=#6c8ebf;" vertex="1" parent="rWumQC1VWJfSYZo2SjhE-1">
          <mxGeometry x="58" y="638" width="120" height="60" as="geometry" />
        </mxCell>
        <mxCell id="rWumQC1VWJfSYZo2SjhE-14" value="" style="edgeStyle=orthogonalEdgeStyle;rounded=0;orthogonalLoop=1;jettySize=auto;html=1;" edge="1" parent="rWumQC1VWJfSYZo2SjhE-1" source="rWumQC1VWJfSYZo2SjhE-16" target="rWumQC1VWJfSYZo2SjhE-20">
          <mxGeometry relative="1" as="geometry" />
        </mxCell>
        <mxCell id="rWumQC1VWJfSYZo2SjhE-15" value="" style="edgeStyle=orthogonalEdgeStyle;rounded=0;orthogonalLoop=1;jettySize=auto;html=1;" edge="1" parent="rWumQC1VWJfSYZo2SjhE-1" source="rWumQC1VWJfSYZo2SjhE-16" target="rWumQC1VWJfSYZo2SjhE-44">
          <mxGeometry relative="1" as="geometry" />
        </mxCell>
        <mxCell id="rWumQC1VWJfSYZo2SjhE-16" value="Store data in a structured way" style="rounded=0;whiteSpace=wrap;html=1;fillColor=#dae8fc;strokeColor=#6c8ebf;" vertex="1" parent="rWumQC1VWJfSYZo2SjhE-1">
          <mxGeometry x="153" y="967" width="120" height="60" as="geometry" />
        </mxCell>
        <mxCell id="rWumQC1VWJfSYZo2SjhE-17" value="" style="edgeStyle=orthogonalEdgeStyle;rounded=0;orthogonalLoop=1;jettySize=auto;html=1;" edge="1" parent="rWumQC1VWJfSYZo2SjhE-1" source="rWumQC1VWJfSYZo2SjhE-20" target="rWumQC1VWJfSYZo2SjhE-43">
          <mxGeometry relative="1" as="geometry">
            <Array as="points">
              <mxPoint x="482" y="958" />
              <mxPoint x="482" y="914" />
            </Array>
          </mxGeometry>
        </mxCell>
        <mxCell id="rWumQC1VWJfSYZo2SjhE-18" value="" style="edgeStyle=orthogonalEdgeStyle;rounded=0;orthogonalLoop=1;jettySize=auto;html=1;" edge="1" parent="rWumQC1VWJfSYZo2SjhE-1" source="rWumQC1VWJfSYZo2SjhE-20" target="rWumQC1VWJfSYZo2SjhE-45">
          <mxGeometry relative="1" as="geometry" />
        </mxCell>
        <mxCell id="rWumQC1VWJfSYZo2SjhE-19" value="" style="edgeStyle=orthogonalEdgeStyle;rounded=0;orthogonalLoop=1;jettySize=auto;html=1;" edge="1" parent="rWumQC1VWJfSYZo2SjhE-1" source="rWumQC1VWJfSYZo2SjhE-20" target="rWumQC1VWJfSYZo2SjhE-46">
          <mxGeometry relative="1" as="geometry">
            <Array as="points">
              <mxPoint x="481" y="958" />
              <mxPoint x="481" y="1002" />
            </Array>
          </mxGeometry>
        </mxCell>
        <mxCell id="rWumQC1VWJfSYZo2SjhE-20" value="Versioning of different datasets" style="rounded=0;whiteSpace=wrap;html=1;" vertex="1" parent="rWumQC1VWJfSYZo2SjhE-1">
          <mxGeometry x="349" y="939" width="120" height="37" as="geometry" />
        </mxCell>
        <mxCell id="rWumQC1VWJfSYZo2SjhE-21" value="" style="edgeStyle=orthogonalEdgeStyle;rounded=0;orthogonalLoop=1;jettySize=auto;html=1;" edge="1" parent="rWumQC1VWJfSYZo2SjhE-1" source="rWumQC1VWJfSYZo2SjhE-24" target="rWumQC1VWJfSYZo2SjhE-39">
          <mxGeometry relative="1" as="geometry" />
        </mxCell>
        <mxCell id="rWumQC1VWJfSYZo2SjhE-22" style="edgeStyle=orthogonalEdgeStyle;rounded=0;orthogonalLoop=1;jettySize=auto;html=1;entryX=0;entryY=0.5;entryDx=0;entryDy=0;" edge="1" parent="rWumQC1VWJfSYZo2SjhE-1" source="rWumQC1VWJfSYZo2SjhE-24" target="rWumQC1VWJfSYZo2SjhE-40">
          <mxGeometry relative="1" as="geometry">
            <mxPoint x="553.3420308430991" y="434" as="targetPoint" />
          </mxGeometry>
        </mxCell>
        <mxCell id="rWumQC1VWJfSYZo2SjhE-23" value="" style="edgeStyle=orthogonalEdgeStyle;rounded=0;orthogonalLoop=1;jettySize=auto;html=1;" edge="1" parent="rWumQC1VWJfSYZo2SjhE-1" source="rWumQC1VWJfSYZo2SjhE-24" target="rWumQC1VWJfSYZo2SjhE-42">
          <mxGeometry relative="1" as="geometry" />
        </mxCell>
        <mxCell id="rWumQC1VWJfSYZo2SjhE-24" value="Dashboard for dataset quality" style="rounded=0;whiteSpace=wrap;html=1;fillColor=#dae8fc;strokeColor=#6c8ebf;" vertex="1" parent="rWumQC1VWJfSYZo2SjhE-1">
          <mxGeometry x="372" y="404" width="120" height="60" as="geometry" />
        </mxCell>
        <mxCell id="rWumQC1VWJfSYZo2SjhE-25" value="" style="edgeStyle=orthogonalEdgeStyle;rounded=0;orthogonalLoop=1;jettySize=auto;html=1;" edge="1" parent="rWumQC1VWJfSYZo2SjhE-1" source="rWumQC1VWJfSYZo2SjhE-28" target="rWumQC1VWJfSYZo2SjhE-31">
          <mxGeometry relative="1" as="geometry" />
        </mxCell>
        <mxCell id="rWumQC1VWJfSYZo2SjhE-26" value="" style="edgeStyle=orthogonalEdgeStyle;rounded=0;orthogonalLoop=1;jettySize=auto;html=1;" edge="1" parent="rWumQC1VWJfSYZo2SjhE-1" source="rWumQC1VWJfSYZo2SjhE-28" target="rWumQC1VWJfSYZo2SjhE-31">
          <mxGeometry relative="1" as="geometry" />
        </mxCell>
        <mxCell id="rWumQC1VWJfSYZo2SjhE-27" value="" style="edgeStyle=orthogonalEdgeStyle;rounded=0;orthogonalLoop=1;jettySize=auto;html=1;" edge="1" parent="rWumQC1VWJfSYZo2SjhE-1" source="rWumQC1VWJfSYZo2SjhE-28" target="rWumQC1VWJfSYZo2SjhE-36">
          <mxGeometry relative="1" as="geometry" />
        </mxCell>
        <mxCell id="rWumQC1VWJfSYZo2SjhE-28" value="Feedback on dataset quality and proposals for improvement" style="rounded=0;whiteSpace=wrap;html=1;fillColor=#dae8fc;strokeColor=#6c8ebf;" vertex="1" parent="rWumQC1VWJfSYZo2SjhE-1">
          <mxGeometry x="58" y="529" width="120" height="60" as="geometry" />
        </mxCell>
        <mxCell id="rWumQC1VWJfSYZo2SjhE-29" value="Automatic data preprocessing and standardization" style="rounded=0;whiteSpace=wrap;html=1;fillColor=#dae8fc;strokeColor=#6c8ebf;" vertex="1" parent="rWumQC1VWJfSYZo2SjhE-1">
          <mxGeometry x="153" y="849" width="120" height="60" as="geometry" />
        </mxCell>
        <mxCell id="rWumQC1VWJfSYZo2SjhE-30" value="" style="edgeStyle=orthogonalEdgeStyle;rounded=0;orthogonalLoop=1;jettySize=auto;html=1;" edge="1" parent="rWumQC1VWJfSYZo2SjhE-1" source="rWumQC1VWJfSYZo2SjhE-31" target="rWumQC1VWJfSYZo2SjhE-34">
          <mxGeometry relative="1" as="geometry" />
        </mxCell>
        <mxCell id="rWumQC1VWJfSYZo2SjhE-31" value="Identify underreoresented types of images" style="whiteSpace=wrap;html=1;rounded=0;" vertex="1" parent="rWumQC1VWJfSYZo2SjhE-1">
          <mxGeometry x="254" y="580" width="120" height="44" as="geometry" />
        </mxCell>
        <mxCell id="rWumQC1VWJfSYZo2SjhE-32" value="" style="edgeStyle=orthogonalEdgeStyle;rounded=0;orthogonalLoop=1;jettySize=auto;html=1;" edge="1" parent="rWumQC1VWJfSYZo2SjhE-1" source="rWumQC1VWJfSYZo2SjhE-34" target="rWumQC1VWJfSYZo2SjhE-38">
          <mxGeometry relative="1" as="geometry" />
        </mxCell>
        <mxCell id="rWumQC1VWJfSYZo2SjhE-33" value="" style="edgeStyle=orthogonalEdgeStyle;rounded=0;orthogonalLoop=1;jettySize=auto;html=1;" edge="1" parent="rWumQC1VWJfSYZo2SjhE-1" source="rWumQC1VWJfSYZo2SjhE-34" target="rWumQC1VWJfSYZo2SjhE-41">
          <mxGeometry relative="1" as="geometry" />
        </mxCell>
        <mxCell id="rWumQC1VWJfSYZo2SjhE-34" value="Clustering?" style="whiteSpace=wrap;html=1;rounded=0;" vertex="1" parent="rWumQC1VWJfSYZo2SjhE-1">
          <mxGeometry x="454" y="580" width="120" height="43" as="geometry" />
        </mxCell>
        <mxCell id="rWumQC1VWJfSYZo2SjhE-35" value="" style="edgeStyle=orthogonalEdgeStyle;rounded=0;orthogonalLoop=1;jettySize=auto;html=1;" edge="1" parent="rWumQC1VWJfSYZo2SjhE-1" source="rWumQC1VWJfSYZo2SjhE-36" target="rWumQC1VWJfSYZo2SjhE-37">
          <mxGeometry relative="1" as="geometry" />
        </mxCell>
        <mxCell id="rWumQC1VWJfSYZo2SjhE-36" value="Identify bad images" style="whiteSpace=wrap;html=1;rounded=0;fillColor=#d5e8d4;strokeColor=#82b366;" vertex="1" parent="rWumQC1VWJfSYZo2SjhE-1">
          <mxGeometry x="254" y="520" width="120" height="44" as="geometry" />
        </mxCell>
        <mxCell id="rWumQC1VWJfSYZo2SjhE-37" value="warnings" style="whiteSpace=wrap;html=1;rounded=0;" vertex="1" parent="rWumQC1VWJfSYZo2SjhE-1">
          <mxGeometry x="454" y="520" width="120" height="43" as="geometry" />
        </mxCell>
        <mxCell id="rWumQC1VWJfSYZo2SjhE-38" value="Provide examples" style="whiteSpace=wrap;html=1;rounded=0;" vertex="1" parent="rWumQC1VWJfSYZo2SjhE-1">
          <mxGeometry x="655" y="549.5" width="120" height="39.5" as="geometry" />
        </mxCell>
        <mxCell id="rWumQC1VWJfSYZo2SjhE-39" value="Share of good images" style="rounded=0;whiteSpace=wrap;html=1;" vertex="1" parent="rWumQC1VWJfSYZo2SjhE-1">
          <mxGeometry x="575" y="371" width="120" height="36" as="geometry" />
        </mxCell>
        <mxCell id="rWumQC1VWJfSYZo2SjhE-40" value="&amp;nbsp;underrepresented classes" style="rounded=0;whiteSpace=wrap;html=1;" vertex="1" parent="rWumQC1VWJfSYZo2SjhE-1">
          <mxGeometry x="575" y="416" width="120" height="36" as="geometry" />
        </mxCell>
        <mxCell id="rWumQC1VWJfSYZo2SjhE-41" value="Automatically select suitable images to enhance quality" style="whiteSpace=wrap;html=1;rounded=0;" vertex="1" parent="rWumQC1VWJfSYZo2SjhE-1">
          <mxGeometry x="655" y="609" width="120" height="39.5" as="geometry" />
        </mxCell>
        <mxCell id="rWumQC1VWJfSYZo2SjhE-42" value="Share of good images" style="rounded=0;whiteSpace=wrap;html=1;" vertex="1" parent="rWumQC1VWJfSYZo2SjhE-1">
          <mxGeometry x="575" y="462" width="120" height="36" as="geometry" />
        </mxCell>
        <mxCell id="rWumQC1VWJfSYZo2SjhE-43" value="Store different datasets" style="whiteSpace=wrap;html=1;rounded=0;" vertex="1" parent="rWumQC1VWJfSYZo2SjhE-1">
          <mxGeometry x="554" y="895" width="120" height="37" as="geometry" />
        </mxCell>
        <mxCell id="rWumQC1VWJfSYZo2SjhE-44" value="Standardized format" style="rounded=0;whiteSpace=wrap;html=1;" vertex="1" parent="rWumQC1VWJfSYZo2SjhE-1">
          <mxGeometry x="349" y="1015" width="120" height="37" as="geometry" />
        </mxCell>
        <mxCell id="rWumQC1VWJfSYZo2SjhE-45" value="Compare different datasets" style="whiteSpace=wrap;html=1;rounded=0;" vertex="1" parent="rWumQC1VWJfSYZo2SjhE-1">
          <mxGeometry x="552" y="939" width="120" height="37" as="geometry" />
        </mxCell>
        <mxCell id="rWumQC1VWJfSYZo2SjhE-46" value="Efficient modeling for different dataset" style="whiteSpace=wrap;html=1;rounded=0;" vertex="1" parent="rWumQC1VWJfSYZo2SjhE-1">
          <mxGeometry x="552" y="986" width="120" height="37" as="geometry" />
        </mxCell>
      </root>
    </mxGraphModel>
  </diagram>
</mxfile>
